<svg id="Layer_1" data-name="Layer 1" xmlns="http://www.w3.org/2000/svg" viewBox="0 0 2164.7 266.7"><defs><style>.cls-1{fill:#485094;}</style></defs><title>calconnect-logo</title><path class="cls-1" d="M217.8,78.6v44.1l-7.3-4.6c-3.2-1.7-10.2-4.2-20.3-7.3a101.3,101.3,0,0,0-30.8-4.6c-21.4,0-39.6,8.1-55,24.5s-23.1,35.7-23.1,59.2,7.7,43,22.8,59.5,33.2,24.1,54.2,24.1c12.3,0,23.5-1.7,34-5.6s18.5-8,23.1-11.9l7-5.6v46.9l-7.4,4.6c-3.1,1.7-10.1,3.8-21.3,6.6a142.6,142.6,0,0,1-35.4,4.2c-34.3,0-62.6-11.9-85.4-35.7S39,224.2,39,189.5s11.9-63,35.3-86.8S126.1,67,159.4,67c22.4,0,44.1,4.6,52.5,8.4Z" transform="translate(-39 -55.8)"/><path class="cls-1" d="M346.6,55.8,453.4,309.2H407.2l-18.6-48.3h-84l-18.5,48.3H239.9Zm28,167.3-28-71.7-28,71.7Z" transform="translate(-39 -55.8)"/><path class="cls-1" d="M530,269.3H641v39.9H488.4V70.5H530Z" transform="translate(-39 -55.8)"/><path class="cls-1" d="M825.1,78.6v44.1l-7.4-4.6c-3.1-1.7-10.1-4.2-20.3-7.3a100.9,100.9,0,0,0-30.8-4.6c-21.3,0-39.5,8.1-54.9,24.5s-23.1,35.7-23.1,59.2,7.7,43,22.7,59.5,33.3,24.1,54.3,24.1c12.2,0,23.4-1.7,33.9-5.6s18.6-8,23.1-11.9l7-5.6v46.9l-7.3,4.6c-3.2,1.7-10.2,3.8-21.4,6.6a141.2,141.2,0,0,1-35.3,4.2q-51.5,0-85.4-35.7c-22.8-23.8-34-52.8-34-87.5s11.9-63,35.4-86.8S733.4,67,766.6,67c22.4,0,44.1,4.6,52.5,8.4Z" transform="translate(-39 -55.8)"/><path class="cls-1" d="M1061.7,102.7c24.1,23.8,36.4,52.9,36.4,86.8s-12.3,63-36.4,87.2-53.2,36-87.9,36-63.3-11.9-87.5-36-36.4-53.2-36.4-87.2,12.3-62.6,36.4-86.4S939.9,67,973.8,67,1037.5,78.9,1061.7,102.7Zm-29.8,146c16.5-16.5,24.5-36.4,24.5-59.2s-8-42.3-24.5-58.8-35.3-24.5-58.1-24.5-42,8.1-58.1,24.5-24.1,36.1-24.1,58.8,8,42.7,24.1,59.2,35.7,24.8,58.1,24.8S1015.8,265.1,1031.9,248.7Z" transform="translate(-39 -55.8)"/><path class="cls-1" d="M1290.6,217.5V70.5h42v252L1183.8,162.2v147h-42V57.2Z" transform="translate(-39 -55.8)"/><path class="cls-1" d="M1540.8,217.5V70.5h42v252L1434.1,162.2v147h-42V57.2Z" transform="translate(-39 -55.8)"/><path class="cls-1" d="M1804,269.3v39.9H1642.3V70.5h159.3v40.3H1684.3v57.7H1783v40.3h-98.7v60.5Z" transform="translate(-39 -55.8)"/><path class="cls-1" d="M2009.1,78.6v44.1l-7.3-4.6c-3.2-1.7-10.2-4.2-20.3-7.3a101.3,101.3,0,0,0-30.8-4.6c-21.4,0-39.6,8.1-55,24.5s-23.1,35.7-23.1,59.2,7.7,43,22.8,59.5,33.2,24.1,54.2,24.1c12.3,0,23.5-1.7,34-5.6s18.5-8,23.1-11.9l7-5.6v46.9l-7.4,4.6c-3.1,1.7-10.1,3.8-21.3,6.6a142.6,142.6,0,0,1-35.4,4.2c-34.3,0-62.6-11.9-85.4-35.7s-33.9-52.8-33.9-87.5,11.9-63,35.3-86.8S1917.4,67,1950.7,67c22.4,0,44.1,4.6,52.5,8.4Z" transform="translate(-39 -55.8)"/><path class="cls-1" d="M2203.7,110.8h-64.4V309.2h-42V110.8h-64.4V70.5h170.8Z" transform="translate(-39 -55.8)"/></svg>